<svg width="657.8px" height="122px" xmlns="http://www.w3.org/2000/svg" viewBox="-78.88124999999997 14 657.7624999999999 122" style="background: rgba(0, 0, 0, 0)" preserveAspectRatio="xMidYMid"><defs><linearGradient id="editing-shiny-gradient" x1="0.04322727117869957" x2="0.9567727288213004" y1="0.2966316784620999" y2="0.7033683215379001" gradientUnits="objectBoundingBox"><stop offset="0" stop-color="#ffb200"></stop><stop offset="0.5" stop-color="#e10057"></stop><stop offset="1" stop-color="#5a1a80"></stop></linearGradient><linearGradient id="editing-shiny-gradient2" x1="0" x2="0" y1="0" y2="1"><stop offset="0.2" stop-color="#ffffff" stop-opacity="0.8"></stop><stop offset="0.8" stop-color="#ffffff" stop-opacity="0"></stop></linearGradient><filter id="editing-shiny2" x="-100%" y="-100%" width="300%" height="300%"><feMorphology operator="erode" radius="2"></feMorphology></filter><filter id="editing-shiny" x="-100%" y="-100%" width="300%" height="300%"><feFlood flood-color="#fff" result="flood"></feFlood><feConvolveMatrix in="SourceGraphic" result="conv" order="8,8" divisor="1" kernelMatrix="0 0 0 0 0 0 0 0 0 0 0 1 1 0 0 0 0 0 0 1 1 0 0 0 0 0 1 0 0 1 0 0 0 0 1 0 0 1 0 0 0 1 0 0 0 0 1 0 0 1 1 0 0 1 1 0 0 0 0 1 1 0 0 0 "></feConvolveMatrix><feOffset dx="0" dy="4" in="conv" result="offset"></feOffset><feComposite operator="in" in="flood" in2="offset" result="comp"></feComposite><feGaussianBlur in="offset" stdDeviation="3" result="shadow"></feGaussianBlur><feColorMatrix in="shadow" type="matrix" values="0.7 0 0 0 0  0 0.7 0 0 0  0 0 0.7 0 0  0 0 0 0.3 0" result="dark-shadow"></feColorMatrix><feOffset dx="0" dy="4" in="dark-shadow" result="offset-shadow"></feOffset><feOffset dx="0" dy="2" in="conv" result="offset-2"></feOffset><feComposite operator="out" in="offset" in2="offset-2" result="edge-diff"></feComposite><feGaussianBlur in="edge-diff" stdDeviation="1" result="edge-blur"></feGaussianBlur><feColorMatrix in="edge-blur" result="edge-shadow" type="matrix" values="0 0 0 0 0  0 0 0 0 0  0 0 0 0 0  0 0 0 0.5 0"></feColorMatrix><feComposite operator="in" in="edge-shadow" in2="offset" result="edge-shadow-in"></feComposite><feOffset dx="0" dy="1" in="edge-shadow-in" result="edge-shadow-final"></feOffset><feMerge result="out"><feMergeNode in="offset-shadow"></feMergeNode><feMergeNode in="comp"></feMergeNode><feMergeNode in="edge-shadow-final"></feMergeNode><feMergeNode in="SourceGraphic"></feMergeNode></feMerge></filter></defs><g transform="matrix(1,0,0,1,0,0)" filter="url(#editing-shiny)"><g transform="matrix(1.3,0,0,2.1,-47.8,41.8)"><path d="M 0.1 30.2 L -13.8 30.2 L -5.7 -12 L 8.4 -12 L 0.1 30.2 Z M 55.9 31.5 L 55.9 31.5 L 55.9 31.5 Q 48.1 31.5 48.1 25.5 L 48.1 25.5 L 48.1 25.5 Q 48.1 22.8 49.3 17.8 L 49.3 17.8 L 49.3 17.8 Q 50.4 12.7 50.8 10.6 L 50.8 10.6 L 50.8 10.6 Q 51.7 5.9 51.7 4.5 L 51.7 4.5 L 51.7 4.5 Q 51.7 1.2 49.2 1.2 L 49.2 1.2 L 49.2 1.2 Q 47.6 1.2 46.1 3.4 L 46.1 3.4 L 46.1 3.4 Q 44.6 5.6 43.8 10 L 43.8 10 L 39.9 30.2 L 27.4 31.5 L 30.9 14.1 L 30.9 14.1 Q 31.4 11.2 31.9 7.9 L 31.9 7.9 L 31.9 7.9 Q 32.5 4.7 32.5 4.1 L 32.5 4.1 L 32.5 4.1 Q 32.5 1.2 30.3 1.2 L 30.3 1.2 L 30.3 1.2 Q 28.8 1.2 27.2 3.4 L 27.2 3.4 L 27.2 3.4 Q 25.6 5.6 24.7 10 L 24.7 10 L 20.8 30.2 L 8.2 31.5 L 14.9 -2.4 L 25.3 -3.7 L 24.3 2.7 L 24.3 2.7 Q 25.9 -0.7 29 -2.2 L 29 -2.2 L 29 -2.2 Q 32.1 -3.7 36.9 -3.7 L 36.9 -3.7 L 36.9 -3.7 Q 39.6 -3.7 41.4 -2.4 L 41.4 -2.4 L 41.4 -2.4 Q 43.2 -1 43.8 1.1 L 43.8 1.1 L 43.8 1.1 Q 44.9 -1.1 47.7 -2.4 L 47.7 -2.4 L 47.7 -2.4 Q 50.4 -3.7 53.9 -3.7 L 53.9 -3.7 L 53.9 -3.7 Q 57.3 -3.7 59 -3 L 59 -3 L 59 -3 Q 60.7 -2.3 61.7 -1 L 61.7 -1 L 61.7 -1 Q 63.4 1.2 63.4 5.3 L 63.4 5.3 L 63.4 5.3 Q 63.4 9.3 61.7 17.7 L 61.7 17.7 L 61.7 17.7 Q 60.8 21.8 60.8 23.3 L 60.8 23.3 L 60.8 23.3 Q 60.8 24.8 61.7 25.7 L 61.7 25.7 L 61.7 25.7 Q 62.5 26.6 63.8 26.7 L 63.8 26.7 L 63.8 26.7 Q 63.2 28.9 61 30.2 L 61 30.2 L 61 30.2 Q 58.8 31.5 55.9 31.5 Z M 71.5 28.3 L 71.5 28.3 L 71.5 28.3 Q 70 26.6 69.3 24 L 69.3 24 L 69.3 24 Q 68.7 21.4 68.7 17.1 L 68.7 17.1 L 68.7 17.1 Q 68.7 12.8 70.1 8.9 L 70.1 8.9 L 70.1 8.9 Q 71.6 5 74.3 2.2 L 74.3 2.2 L 74.3 2.2 Q 79.8 -3.7 88.9 -3.7 L 88.9 -3.7 L 88.9 -3.7 Q 92.2 -3.7 94.5 -2.6 L 94.5 -2.6 L 105.5 -3.7 L 100.7 21.2 L 100.7 21.2 Q 100.6 22 100.6 23.4 L 100.6 23.4 L 100.6 23.4 Q 100.6 24.8 101.4 25.7 L 101.4 25.7 L 101.4 25.7 Q 102.3 26.6 103.6 26.7 L 103.6 26.7 L 103.6 26.7 Q 102.9 28.9 100.6 30.2 L 100.6 30.2 L 100.6 30.2 Q 98.3 31.5 95.6 31.5 L 95.6 31.5 L 95.6 31.5 Q 93 31.5 91.2 30.5 L 91.2 30.5 L 91.2 30.5 Q 89.5 29.5 89 27.8 L 89 27.8 L 89 27.8 Q 87.9 29.4 85.8 30.5 L 85.8 30.5 L 85.8 30.5 Q 83.6 31.5 80.7 31.5 L 80.7 31.5 L 80.7 31.5 Q 77.8 31.5 75.4 30.7 L 75.4 30.7 L 75.4 30.7 Q 73 29.9 71.5 28.3 Z M 85 2.3 L 85 2.3 L 85 2.3 Q 84.3 3.4 83.7 5.4 L 83.7 5.4 L 83.7 5.4 Q 83 7.3 82 12.6 L 82 12.6 L 82 12.6 Q 80.9 17.8 80.9 21.5 L 80.9 21.5 L 80.9 21.5 Q 80.9 25.2 81.5 26.3 L 81.5 26.3 L 81.5 26.3 Q 82.1 27.4 83.1 27.4 L 83.1 27.4 L 83.1 27.4 Q 85.1 27.4 86.6 25.4 L 86.6 25.4 L 86.6 25.4 Q 88.1 23.5 88.7 20 L 88.7 20 L 92.1 1.3 L 92.1 1.3 Q 90.8 0.1 89.2 0.1 L 89.2 0.1 L 89.2 0.1 Q 87.6 0.1 86.7 0.6 L 86.7 0.6 L 86.7 0.6 Q 85.8 1.1 85 2.3 Z M 113.2 3.4 L 113.2 3.4 L 113.2 3.4 Q 115.4 0.4 118.7 -1.7 L 118.7 -1.7 L 118.7 -1.7 Q 122 -3.7 126 -3.7 L 126 -3.7 L 126 -3.7 Q 130.1 -3.7 132 -2.4 L 132 -2.4 L 144.5 -3.7 L 140.2 20.9 L 140.2 20.9 Q 137.9 33.4 133.2 38.3 L 133.2 38.3 L 133.2 38.3 Q 128.6 43 119.8 43 L 119.8 43 L 119.8 43 Q 113.1 43 109.3 40.9 L 109.3 40.9 L 109.3 40.9 Q 105.4 38.8 105.4 35.3 L 105.4 35.3 L 105.4 35.3 Q 105.4 32.6 107.4 31.1 L 107.4 31.1 L 107.4 31.1 Q 109.4 29.6 112.5 29.6 L 112.5 29.6 L 112.5 29.6 Q 115.1 29.6 117.2 30.8 L 117.2 30.8 L 117.2 30.8 Q 118.4 31.5 119 32.4 L 119 32.4 L 119 32.4 Q 117.5 33.7 117.5 35.8 L 117.5 35.8 L 117.5 35.8 Q 117.5 38.5 120.1 38.5 L 120.1 38.5 L 120.1 38.5 Q 124.4 38.5 126.8 28.4 L 126.8 28.4 L 126.8 28.4 Q 127.5 25.7 128.1 22.9 L 128.1 22.9 L 128.1 22.9 Q 125.2 26.4 118.7 26.4 L 118.7 26.4 L 118.7 26.4 Q 114.1 26.4 111.5 24.2 L 111.5 24.2 L 111.5 24.2 Q 108.9 22.1 108.9 16.9 L 108.9 16.9 L 108.9 16.9 Q 108.9 13.8 110 10.1 L 110 10.1 L 110 10.1 Q 111.1 6.5 113.2 3.4 Z M 121.5 17.1 L 121.5 17.1 L 121.5 17.1 Q 121.5 21.5 123.8 21.5 L 123.8 21.5 L 123.8 21.5 Q 125.3 21.5 126.8 19.8 L 126.8 19.8 L 126.8 19.8 Q 127.9 18.5 128.4 16.5 L 128.4 16.5 L 131.7 0.1 L 131.7 0.1 Q 131.3 0 131 -0.1 L 131 -0.1 L 131 -0.1 Q 130.4 -0.4 129.5 -0.4 L 129.5 -0.4 L 129.5 -0.4 Q 125.6 -0.4 123.3 6 L 123.3 6 L 123.3 6 Q 121.5 11 121.5 17.1 Z M 172.9 19.4 L 172.9 19.4 L 172.9 19.4 Q 174.5 20.5 174.5 22.9 L 174.5 22.9 L 174.5 22.9 Q 174.5 25.3 173.3 26.8 L 173.3 26.8 L 173.3 26.8 Q 172.1 28.3 170.1 29.4 L 170.1 29.4 L 170.1 29.4 Q 166 31.5 161.6 31.5 L 161.6 31.5 L 161.6 31.5 Q 157.2 31.5 154.6 30.5 L 154.6 30.5 L 154.6 30.5 Q 152 29.6 150.3 27.8 L 150.3 27.8 L 150.3 27.8 Q 146.9 24.4 146.9 18.2 L 146.9 18.2 L 146.9 18.2 Q 146.9 8.5 152.1 2.6 L 152.1 2.6 L 152.1 2.6 Q 157.8 -3.7 167.6 -3.7 L 167.6 -3.7 L 167.6 -3.7 Q 173.6 -3.7 176.6 -1.2 L 176.6 -1.2 L 176.6 -1.2 Q 178.9 0.8 178.9 3.9 L 178.9 3.9 L 178.9 3.9 Q 178.9 15.2 159.4 15.2 L 159.4 15.2 L 159.4 15.2 Q 159.2 16.8 159.2 18.2 L 159.2 18.2 L 159.2 18.2 Q 159.2 21.2 160.5 22.3 L 160.5 22.3 L 160.5 22.3 Q 161.8 23.4 164.2 23.4 L 164.2 23.4 L 164.2 23.4 Q 166.7 23.4 169.3 22.3 L 169.3 22.3 L 169.3 22.3 Q 171.9 21.2 172.9 19.4 Z M 159.9 12.4 L 159.9 12.4 L 159.9 12.4 Q 164.4 12.4 167.1 9.6 L 167.1 9.6 L 167.1 9.6 Q 169.7 6.9 169.7 2.6 L 169.7 2.6 L 169.7 2.6 Q 169.7 1.1 169.1 0.3 L 169.1 0.3 L 169.1 0.3 Q 168.6 -0.5 167.5 -0.5 L 167.5 -0.5 L 167.5 -0.5 Q 166.4 -0.5 165.5 0 L 165.5 0 L 165.5 0 Q 164.6 0.4 163.6 1.8 L 163.6 1.8 L 163.6 1.8 Q 161.2 5 159.9 12.4 Z M 200.2 7.7 L 200.2 7.7 L 200.2 7.7 Q 201.1 5.4 201.1 3.3 L 201.1 3.3 L 201.1 3.3 Q 201.1 -0.5 198 -0.5 L 198 -0.5 L 198 -0.5 Q 196.4 -0.5 195.1 1 L 195.1 1 L 195.1 1 Q 193.8 2.4 193.8 4.2 L 193.8 4.2 L 193.8 4.2 Q 193.8 5.5 194.8 6.5 L 194.8 6.5 L 194.8 6.5 Q 196.3 7.9 200.1 10.2 L 200.1 10.2 L 200.1 10.2 Q 203.9 12.5 205.3 14.4 L 205.3 14.4 L 205.3 14.4 Q 206.7 16.3 206.7 18.9 L 206.7 18.9 L 206.7 18.9 Q 206.7 21.5 205.5 23.9 L 205.5 23.9 L 205.5 23.9 Q 204.2 26.2 202 27.9 L 202 27.9 L 202 27.9 Q 197.2 31.5 189.5 31.5 L 189.5 31.5 L 189.5 31.5 Q 185.4 31.5 182.1 29.3 L 182.1 29.3 L 182.1 29.3 Q 179 27.2 179 24.7 L 179 24.7 L 179 24.7 Q 179 22.2 180.8 20.7 L 180.8 20.7 L 180.8 20.7 Q 182.6 19.3 185.3 19.3 L 185.3 19.3 L 185.3 19.3 Q 188 19.3 189.6 20.3 L 189.6 20.3 L 189.6 20.3 Q 188.8 22.4 188.8 23.8 L 188.8 23.8 L 188.8 23.8 Q 188.8 28 192.4 28 L 192.4 28 L 192.4 28 Q 193.9 28 195 27.1 L 195 27.1 L 195 27.1 Q 196 26.1 196 24.4 L 196 24.4 L 196 24.4 Q 196 21.2 190.5 17.7 L 190.5 17.7 L 190.5 17.7 Q 186 14.8 185 13.6 L 185 13.6 L 185 13.6 Q 183.2 11.6 183.2 9 L 183.2 9 L 183.2 9 Q 183.2 6.5 184.5 4 L 184.5 4 L 184.5 4 Q 185.7 1.6 187.9 -0.1 L 187.9 -0.1 L 187.9 -0.1 Q 192.6 -3.7 200.7 -3.7 L 200.7 -3.7 L 200.7 -3.7 Q 204.9 -3.7 207.3 -2.1 L 207.3 -2.1 L 207.3 -2.1 Q 209.8 -0.4 209.8 2.4 L 209.8 2.4 L 209.8 2.4 Q 209.8 5.2 208.1 6.8 L 208.1 6.8 L 208.1 6.8 Q 206.4 8.4 203.3 8.4 L 203.3 8.4 L 203.3 8.4 Q 201.2 8.4 200.2 7.7 Z M 251.3 9.6 L 264.2 8.4 L 264.2 8.4 Q 259.6 18.5 259.6 30.3 L 259.6 30.3 L 259.6 30.3 Q 257.9 31.5 255.3 31.5 L 255.3 31.5 L 255.3 31.5 Q 252.8 31.5 251.2 30.3 L 251.2 30.3 L 251.2 30.3 Q 249.6 29.1 249.3 27.9 L 249.3 27.9 L 249.3 27.9 Q 247.7 29.6 245.1 30.5 L 245.1 30.5 L 245.1 30.5 Q 242.5 31.5 239.7 31.5 L 239.7 31.5 L 239.7 31.5 Q 237 31.5 234.6 30.6 L 234.6 30.6 L 234.6 30.6 Q 232.2 29.7 230.3 27.7 L 230.3 27.7 L 230.3 27.7 Q 226.2 23.4 226.2 15.1 L 226.2 15.1 L 226.2 15.1 Q 226.2 2.3 233.1 -5.4 L 233.1 -5.4 L 233.1 -5.4 Q 240.1 -13.3 252.6 -13.3 L 252.6 -13.3 L 252.6 -13.3 Q 261.3 -13.3 264.3 -8.8 L 264.3 -8.8 L 264.3 -8.8 Q 265.3 -7.4 265.3 -5.7 L 265.3 -5.7 L 265.3 -5.7 Q 265.3 -4 264.6 -2.6 L 264.6 -2.6 L 264.6 -2.6 Q 263.8 -1.2 262.7 0 L 262.7 0 L 262.7 0 Q 259.9 2.6 256.5 2.6 L 256.5 2.6 L 256.5 2.6 Q 255.2 2.6 253.9 2.1 L 253.9 2.1 L 253.9 2.1 Q 254.2 0.2 254.2 -2.1 L 254.2 -2.1 L 254.2 -2.1 Q 254.2 -4.3 254 -5.3 L 254 -5.3 L 254 -5.3 Q 253.8 -6.3 253.4 -7.2 L 253.4 -7.2 L 253.4 -7.2 Q 252.6 -8.9 250.8 -8.9 L 250.8 -8.9 L 250.8 -8.9 Q 249 -8.9 246.9 -6.9 L 246.9 -6.9 L 246.9 -6.9 Q 244.9 -5 243.3 -1.8 L 243.3 -1.8 L 243.3 -1.8 Q 239.8 5.4 239.8 14 L 239.8 14 L 239.8 14 Q 239.8 18 241.4 20.8 L 241.4 20.8 L 241.4 20.8 Q 243 23.9 246 23.9 L 246 23.9 L 246 23.9 Q 247 23.9 247.9 23.4 L 247.9 23.4 L 247.9 23.4 Q 248.8 22.8 249.2 22.5 L 249.2 22.5 L 251.3 9.6 Z M 270.1 28.3 L 270.1 28.3 L 270.1 28.3 Q 268.6 26.6 267.9 24 L 267.9 24 L 267.9 24 Q 267.3 21.4 267.3 17.1 L 267.3 17.1 L 267.3 17.1 Q 267.3 12.8 268.7 8.9 L 268.7 8.9 L 268.7 8.9 Q 270.2 5 272.9 2.2 L 272.9 2.2 L 272.9 2.2 Q 278.4 -3.7 287.5 -3.7 L 287.5 -3.7 L 287.5 -3.7 Q 290.8 -3.7 293.1 -2.6 L 293.1 -2.6 L 304.1 -3.7 L 299.3 21.2 L 299.3 21.2 Q 299.1 22 299.1 23.4 L 299.1 23.4 L 299.1 23.4 Q 299.1 24.8 300 25.7 L 300 25.7 L 300 25.7 Q 300.9 26.6 302.2 26.7 L 302.2 26.7 L 302.2 26.7 Q 301.5 28.9 299.2 30.2 L 299.2 30.2 L 299.2 30.2 Q 296.8 31.5 294.2 31.5 L 294.2 31.5 L 294.2 31.5 Q 291.6 31.5 289.8 30.5 L 289.8 30.5 L 289.8 30.5 Q 288.1 29.5 287.6 27.8 L 287.6 27.8 L 287.6 27.8 Q 286.5 29.4 284.4 30.5 L 284.4 30.5 L 284.4 30.5 Q 282.2 31.5 279.3 31.5 L 279.3 31.5 L 279.3 31.5 Q 276.4 31.5 274 30.7 L 274 30.7 L 274 30.7 Q 271.6 29.9 270.1 28.3 Z M 283.6 2.3 L 283.6 2.3 L 283.6 2.3 Q 282.9 3.4 282.2 5.4 L 282.2 5.4 L 282.2 5.4 Q 281.6 7.3 280.6 12.6 L 280.6 12.6 L 280.6 12.6 Q 279.5 17.8 279.5 21.5 L 279.5 21.5 L 279.5 21.5 Q 279.5 25.2 280.1 26.3 L 280.1 26.3 L 280.1 26.3 Q 280.7 27.4 281.7 27.4 L 281.7 27.4 L 281.7 27.4 Q 283.7 27.4 285.2 25.4 L 285.2 25.4 L 285.2 25.4 Q 286.7 23.5 287.3 20 L 287.3 20 L 290.7 1.3 L 290.7 1.3 Q 289.4 0.1 287.8 0.1 L 287.8 0.1 L 287.8 0.1 Q 286.2 0.1 285.3 0.6 L 285.3 0.6 L 285.3 0.6 Q 284.4 1.1 283.6 2.3 Z M 322.8 26.7 L 322.8 26.7 L 322.8 26.7 Q 320.8 31.5 314.5 31.5 L 314.5 31.5 L 314.5 31.5 Q 311.3 31.5 309.3 29.2 L 309.3 29.2 L 309.3 29.2 Q 307.6 27.4 307.6 25.3 L 307.6 25.3 L 307.6 25.3 Q 307.6 20.5 309.8 10 L 309.8 10 L 314.5 -14.6 L 327.5 -15.9 L 321.3 16.5 L 321.3 16.5 Q 320.2 21.2 320.2 22.9 L 320.2 22.9 L 320.2 22.9 Q 320.2 26.6 322.8 26.7 Z M 343.6 26.7 L 343.6 26.7 L 343.6 26.7 Q 341.6 31.5 335.2 31.5 L 335.2 31.5 L 335.2 31.5 Q 332 31.5 330 29.2 L 330 29.2 L 330 29.2 Q 328.3 27.4 328.3 25.3 L 328.3 25.3 L 328.3 25.3 Q 328.3 20.5 330.6 10 L 330.6 10 L 335.2 -14.6 L 348.2 -15.9 L 342 16.5 L 342 16.5 Q 340.9 21.2 340.9 22.9 L 340.9 22.9 L 340.9 22.9 Q 340.9 26.6 343.6 26.7 Z M 374.9 19.4 L 374.9 19.4 L 374.9 19.4 Q 376.5 20.5 376.5 22.9 L 376.5 22.9 L 376.5 22.9 Q 376.5 25.3 375.3 26.8 L 375.3 26.8 L 375.3 26.8 Q 374.1 28.3 372.1 29.4 L 372.1 29.4 L 372.1 29.4 Q 368 31.5 363.6 31.5 L 363.6 31.5 L 363.6 31.5 Q 359.2 31.5 356.6 30.5 L 356.6 30.5 L 356.6 30.5 Q 354 29.6 352.3 27.8 L 352.3 27.8 L 352.3 27.8 Q 348.9 24.4 348.9 18.2 L 348.9 18.2 L 348.9 18.2 Q 348.9 8.5 354.1 2.6 L 354.1 2.6 L 354.1 2.6 Q 359.7 -3.7 369.5 -3.7 L 369.5 -3.7 L 369.5 -3.7 Q 375.6 -3.7 378.6 -1.2 L 378.6 -1.2 L 378.6 -1.2 Q 380.9 0.8 380.9 3.9 L 380.9 3.9 L 380.9 3.9 Q 380.9 15.2 361.4 15.2 L 361.4 15.2 L 361.4 15.2 Q 361.2 16.8 361.2 18.2 L 361.2 18.2 L 361.2 18.2 Q 361.2 21.2 362.5 22.3 L 362.5 22.3 L 362.5 22.3 Q 363.8 23.4 366.2 23.4 L 366.2 23.4 L 366.2 23.4 Q 368.7 23.4 371.2 22.3 L 371.2 22.3 L 371.2 22.3 Q 373.8 21.2 374.9 19.4 Z M 361.9 12.4 L 361.9 12.4 L 361.9 12.4 Q 366.4 12.4 369 9.6 L 369 9.6 L 369 9.6 Q 371.7 6.9 371.7 2.6 L 371.7 2.6 L 371.7 2.6 Q 371.7 1.1 371.1 0.3 L 371.1 0.3 L 371.1 0.3 Q 370.6 -0.5 369.5 -0.5 L 369.5 -0.5 L 369.5 -0.5 Q 368.4 -0.5 367.5 0 L 367.5 0 L 367.5 0 Q 366.5 0.4 365.6 1.8 L 365.6 1.8 L 365.6 1.8 Q 363.2 5 361.9 12.4 Z M 403.1 12.2 L 403.1 12.2 L 403.1 12.2 Q 405.4 8.1 405.4 4 L 405.4 4 L 405.4 4 Q 405.4 1.2 403.4 1.2 L 403.4 1.2 L 403.4 1.2 Q 401.9 1.2 400.3 3.8 L 400.3 3.8 L 400.3 3.8 Q 398.6 6.5 398.1 9.8 L 398.1 9.8 L 394.8 30.2 L 381.5 31.5 L 388 -2.4 L 398.6 -3.7 L 397.4 2.7 L 397.4 2.7 Q 400.6 -3.7 407.6 -3.7 L 407.6 -3.7 L 407.6 -3.7 Q 411.3 -3.7 413.4 -1.8 L 413.4 -1.8 L 413.4 -1.8 Q 415.4 0.1 415.4 4.1 L 415.4 4.1 L 415.4 4.1 Q 415.4 8 412.8 10.5 L 412.8 10.5 L 412.8 10.5 Q 410.2 13 405.8 13 L 405.8 13 L 405.8 13 Q 403.9 13 403.1 12.2 Z M 436.7 23 L 436.7 23 L 436.7 23 Q 433.4 26.4 427.3 26.4 L 427.3 26.4 L 427.3 26.4 Q 419.7 26.4 418.1 20.9 L 418.1 20.9 L 418.1 20.9 Q 417.6 19.2 417.6 17.3 L 417.6 17.3 L 417.6 17.3 Q 417.6 15.5 418 13.6 L 418 13.6 L 421 -2.4 L 434 -3.7 L 430.5 14.9 L 430.5 14.9 Q 430.3 15.7 430.2 16.6 L 430.2 16.6 L 430.2 16.6 Q 430 17.5 430 18.5 L 430 18.5 L 430 18.5 Q 430 19.4 430.3 20 L 430.3 20 L 430.3 20 Q 430.6 20.6 431.1 21 L 431.1 21 L 431.1 21 Q 431.8 21.5 433.2 21.5 L 433.2 21.5 L 433.2 21.5 Q 434.6 21.5 435.7 19.8 L 435.7 19.8 L 435.7 19.8 Q 436.9 18.2 437.5 15.3 L 437.5 15.3 L 441 -2.4 L 453.6 -3.7 L 448.8 21.4 L 448.8 21.4 Q 446.5 33.7 441.6 38.6 L 441.6 38.6 L 441.6 38.6 Q 439.1 41.1 435.9 42.1 L 435.9 42.1 L 435.9 42.1 Q 432.7 43.1 428.5 43.1 L 428.5 43.1 L 428.5 43.1 Q 421.8 43.1 417.9 41 L 417.9 41 L 417.9 41 Q 414.1 38.8 414.1 35.3 L 414.1 35.3 L 414.1 35.3 Q 414.1 32.7 416.1 31.2 L 416.1 31.2 L 416.1 31.2 Q 418.1 29.7 421.1 29.7 L 421.1 29.7 L 421.1 29.7 Q 423.8 29.7 425.9 30.8 L 425.9 30.8 L 425.9 30.8 Q 427.1 31.5 427.7 32.4 L 427.7 32.4 L 427.7 32.4 Q 426.2 33.7 426.2 35.8 L 426.2 35.8 L 426.2 35.8 Q 426.2 38.6 428.7 38.6 L 428.7 38.6 L 428.7 38.6 Q 433 38.6 435.4 28.9 L 435.4 28.9 L 435.4 28.9 Q 436.1 26 436.7 23 Z" fill="url(#editing-shiny-gradient)"></path></g></g><style>    text {
  font-size: 64px;
  font-family: Arial Black;
  dominant-baseline: central;
  text-anchor: middle;
}</style>
</svg>